<?xml version="1.0" encoding="UTF-8" standalone="no"?>
<!-- Creator: CorelDRAW X8 -->

<svg
   xml:space="preserve"
   width="45.795029mm"
   height="25.890631mm"
   version="1.1"
   style="clip-rule:evenodd;fill-rule:evenodd;image-rendering:optimizeQuality;shape-rendering:geometricPrecision;text-rendering:geometricPrecision"
   viewBox="0 0 1093.1211 617.93153"
   id="svg82"
   sodipodi:docname="fleet.svg"
   inkscape:version="1.1.2 (b8e25be833, 2022-02-05)"
   xmlns:inkscape="http://www.inkscape.org/namespaces/inkscape"
   xmlns:sodipodi="http://sodipodi.sourceforge.net/DTD/sodipodi-0.dtd"
   xmlns="http://www.w3.org/2000/svg"
   xmlns:svg="http://www.w3.org/2000/svg"><sodipodi:namedview
   id="namedview84"
   pagecolor="#ffffff"
   bordercolor="#666666"
   borderopacity="1.0"
   inkscape:pageshadow="2"
   inkscape:pageopacity="0.0"
   inkscape:pagecheckerboard="0"
   inkscape:document-units="mm"
   showgrid="false"
   inkscape:zoom="7.6960956"
   inkscape:cx="114.47363"
   inkscape:cy="48.92091"
   inkscape:window-width="1920"
   inkscape:window-height="991"
   inkscape:window-x="-9"
   inkscape:window-y="-9"
   inkscape:window-maximized="1"
   inkscape:current-layer="Layer_x0020_1"
   fit-margin-top="0"
   fit-margin-left="0"
   fit-margin-right="0"
   fit-margin-bottom="0" />
 <defs
   id="defs4">
  <style
   type="text/css"
   id="style2">
   <![CDATA[
    .fil0 {fill:black}
    .fil1 {fill:#64C4B0}
    .fil15 {fill:#68C5AD}
    .fil3 {fill:#6EC6A8}
    .fil5 {fill:#70C6A6}
    .fil6 {fill:#73C7A2}
    .fil14 {fill:#76C7A0}
    .fil21 {fill:#7AC79C}
    .fil11 {fill:#7BC89A}
    .fil4 {fill:#7EC898}
    .fil16 {fill:#81C995}
    .fil17 {fill:#83C992}
    .fil23 {fill:#86C990}
    .fil7 {fill:#88C98E}
    .fil8 {fill:#8BCA8A}
    .fil9 {fill:#90CB84}
    .fil19 {fill:#92CB81}
    .fil12 {fill:#94CC7D}
    .fil10 {fill:#94CC7F}
    .fil13 {fill:#98CD79}
    .fil20 {fill:#9ACD77}
    .fil22 {fill:#9BCE75}
    .fil18 {fill:#9ECE70}
    .fil25 {fill:#9FCF6F}
    .fil24 {fill:#A0CF6D}
    .fil2 {fill:#A2CF6A}
   ]]>
  </style>
 </defs>
 <g
   id="Layer_x0020_1"
   inkscape:label="Layer 1"
   inkscape:groupmode="layer"
   transform="translate(0,-0.03716091)">
  <metadata
   id="CorelCorpID_0Corel-Layer" />
  <path
   class="fil0"
   d="m 799.55466,488 c 15.08594,-28 15.08594,-35 42.08183,-44 v 44 l 7.93997,34 61.13774,-2 c -7.14597,43 -17.46793,66 -55.57977,66 -34.93585,0 -50.02179,-27 -59.54975,-62 z m 68.28372,-43 c 29.37788,11 28.58388,9 38.11184,46 h -38.11184 z m 0,-218 h 74.63569 v 135 l 110.36553,4 18.2619,125 H 932.15211 c -11.11595,-47 -23.0259,-66 -64.31373,-77 z m 101.63158,0 63.51974,5 13.4979,96 h -77.01764 z m -127.03947,-22 -0.794,199 c -21.43791,24 -46.84581,14 -66.69572,84 l -2.38199,41 c 11.11595,53 38.11184,92 89.72162,87 48.4338,-5 75.42969,-77 77.01768,-90 2.38199,-14 134.97942,-9 151.65332,-9 11.91,-40 -28.5838,-267 -39.6998,-316 l -101.63156,-6 c -9.52796,7 8.73396,1 -15.08594,7 -6.35197,1 -4.76398,1 -11.90995,2 -28.58388,2 -47.6398,-8 -80.19366,1 z"
   id="path7"
   style="stroke-width:0.891065" />
  <path
   class="fil1"
   d="m 183.41323,522 0.794,-34 H 140.53741 V 362 h 15.08594 v -34 h -15.08594 v -33 h 28.58388 v -34 h -28.58388 v -34 h 54.78578 v -33 h -54.78578 v -26 h 81.78166 V 135 H 140.53741 V 34 H 326.33264 V 0 H 113.54153 v 135 c -34.935858,0 -31.759871,-9 -46.845808,17 15.085937,25 11.90995,16 46.845808,16 v 26 c -36.523851,0 -57.961762,-11 -73.047699,16 15.085937,28 36.523848,17 73.047699,17 v 34 c -17.467931,0 -37.317848,-1 -53.991778,-1 -34.935855,1 -25.407894,-6 -39.699835,18 17.467927,29 24.613897,17 93.691613,17 v 33 C 77.017679,328 25.407894,321 0,337 c 20.643914,39 30.965871,25 113.54153,25 v 160 z"
   id="path9"
   style="stroke-width:0.891065" />
  <path
   class="fil0"
   d="m 206.43914,522 c 0.794,-28 -2.38199,-21 7.93997,-40 19.84991,-57 76.22368,-52 99.24958,0 10.32196,19 7.14597,11 7.93997,40 -19.84992,90 -99.24959,85 -115.12952,0 z m -22.23191,-34 -0.794,34 c 13.49795,130 148.47739,126 161.18133,0 l -1.58799,-33 c -11.90995,-43 -30.96587,-75 -76.22368,-77 -48.4338,-1 -69.07771,31 -82.57566,76 z"
   id="path11"
   style="stroke-width:0.891065" />
  <path
   class="fil2"
   d="m 809.87662,34 h 32.55387 v 171 c 32.55386,-9 51.60978,1 80.19366,-1 7.14597,-1 5.55798,-1 11.90995,-2 23.8199,-6 5.55798,0 15.08594,-7 l -80.98766,2 V 0 h -58.75576 z"
   id="path13"
   style="stroke-width:0.891065" />
  <polygon
   class="fil3"
   points="196,328 196,362 386,362 386,328 "
   id="polygon15"
   transform="scale(0.79399669,1)" />
  <polygon
   class="fil3"
   points="213,261 213,295 401,295 401,261 "
   id="polygon17"
   transform="scale(0.79399669,1)" />
  <polygon
   class="fil4"
   points="421,194 421,227 597,227 597,194 "
   id="polygon19"
   transform="scale(0.79399669,1)" />
  <polygon
   class="fil5"
   points="246,194 246,227 421,227 421,194 "
   id="polygon21"
   transform="scale(0.79399669,1)" />
  <polygon
   class="fil6"
   points="411,0 411,34 579,34 579,0 "
   id="polygon23"
   transform="scale(0.79399669,1)" />
  <polygon
   class="fil7"
   points="539,328 539,362 699,362 699,328 "
   id="polygon25"
   transform="scale(0.79399669,1)" />
  <polygon
   class="fil8"
   points="597,194 597,227 758,227 758,194 "
   id="polygon27"
   transform="scale(0.79399669,1)" />
  <polygon
   class="fil9"
   points="641,261 641,295 798,295 798,261 "
   id="polygon29"
   transform="scale(0.79399669,1)" />
  <polygon
   class="fil5"
   points="280,135 280,168 437,168 437,135 "
   id="polygon31"
   transform="scale(0.79399669,1)" />
  <path
   class="fil10"
   d="m 650.28329,522 c 38.90583,0 86.54564,-9 122.27549,7 l 2.38199,-41 H 650.28329 Z"
   id="path33"
   style="stroke-width:0.891065" />
  <polygon
   class="fil11"
   points="386,328 386,362 539,362 539,328 "
   id="polygon35"
   transform="scale(0.79399669,1)" />
  <polygon
   class="fil12"
   points="699,328 699,362 849,362 849,328 "
   id="polygon37"
   transform="scale(0.79399669,1)" />
  <polygon
   class="fil11"
   points="437,135 437,168 586,168 586,135 "
   id="polygon39"
   transform="scale(0.79399669,1)" />
  <polygon
   class="fil13"
   points="758,194 758,227 905,227 905,194 "
   id="polygon41"
   transform="scale(0.79399669,1)" />
  <polygon
   class="fil14"
   points="432,489 434,522 581,522 581,488 "
   id="polygon43"
   transform="scale(0.79399669,1)" />
  <path
   class="fil15"
   d="m 206.43914,522 h 115.12952 c -0.794,-29 2.38199,-21 -7.93997,-40 -18.26192,11 -80.98766,11 -99.24958,0 -10.32196,19 -7.14597,12 -7.93997,40 z"
   id="path45"
   style="stroke-width:0.891065" />
  <polygon
   class="fil16"
   points="579,0 579,34 722,34 722,0 "
   id="polygon47"
   transform="scale(0.79399669,1)" />
  <polygon
   class="fil17"
   points="499,261 499,295 641,295 641,261 "
   id="polygon49"
   transform="scale(0.79399669,1)" />
  <polygon
   class="fil16"
   points="581,488 581,522 722,522 722,488 "
   id="polygon51"
   transform="scale(0.79399669,1)" />
  <polygon
   class="fil9"
   points="667,135 667,168 808,168 808,135 "
   id="polygon53"
   transform="scale(0.79399669,1)" />
  <path
   class="fil18"
   d="m 674.10319,362 c 20.64391,0 41.28783,1 61.13774,1 36.52385,-1 31.75987,3 46.84581,-26 -24.6139,-15 -73.0477,-9 -107.98355,-9 z"
   id="path55"
   style="stroke-width:0.891065" />
  <polygon
   class="fil19"
   points="818,0 818,34 925,34 925,0 "
   id="polygon57"
   transform="scale(0.79399669,1)" />
  <polygon
   class="fil20"
   points="798,261 798,295 905,295 905,261 "
   id="polygon59"
   transform="scale(0.79399669,1)" />
  <polygon
   class="fil20"
   points="808,135 808,168 907,168 907,135 "
   id="polygon61"
   transform="scale(0.79399669,1)" />
  <polygon
   class="fil21"
   points="401,261 401,295 499,295 499,261 "
   id="polygon63"
   transform="scale(0.79399669,1)" />
  <polygon
   class="fil8"
   points="722,488 722,522 819,522 819,488 "
   id="polygon65"
   transform="scale(0.79399669,1)" />
  <polygon
   class="fil8"
   points="722,0 722,34 818,34 818,0 "
   id="polygon67"
   transform="scale(0.79399669,1)" />
  <polygon
   class="fil22"
   points="925,0 925,34 1020,34 1020,0 "
   id="polygon69"
   transform="scale(0.79399669,1)" />
  <polygon
   class="fil23"
   points="586,135 586,168 667,168 667,135 "
   id="polygon71"
   transform="scale(0.79399669,1)" />
  <path
   class="fil24"
   d="m 718.567,227 c 36.52385,0 47.6398,10 63.51974,-17 C 766.2068,184 755.09085,194 718.567,194 Z"
   id="path73"
   style="stroke-width:0.891065" />
  <path
   class="fil24"
   d="m 718.567,295 c 36.52385,0 47.6398,10 63.51974,-17 C 766.2068,251 755.09085,261 718.567,261 Z"
   id="path75"
   style="stroke-width:0.891065" />
  <path
   class="fil24"
   d="m 720.155,168 c 36.52384,0 46.0518,10 61.93174,-16 -15.87994,-27 -25.4079,-17 -61.93174,-17 z"
   id="path77"
   style="stroke-width:0.891065" />
  <polygon
   class="fil25"
   points="1007,488 1002,524 1070,522 1060,488 "
   id="polygon79"
   transform="scale(0.79399669,1)" />
 </g>
</svg>
