<?xml version="1.0" encoding="UTF-8"?>
<!DOCTYPE svg PUBLIC "-//W3C//DTD SVG 1.1//EN" "http://www.w3.org/Graphics/SVG/1.1/DTD/svg11.dtd">
<!-- Creator: CorelDRAW X8 -->
<svg xmlns="http://www.w3.org/2000/svg" xml:space="preserve" width="49.0281mm" height="31.9341mm" version="1.1" style="shape-rendering:geometricPrecision; text-rendering:geometricPrecision; image-rendering:optimizeQuality; fill-rule:evenodd; clip-rule:evenodd"
viewBox="0 0 1032 672"
 xmlns:xlink="http://www.w3.org/1999/xlink">
 <defs>
  <style type="text/css">
   <![CDATA[
    .fil0 {fill:black}
    .fil1 {fill:#67C5AE}
    .fil2 {fill:#69C5AC}
    .fil10 {fill:#7AC294}
    .fil8 {fill:#7CC89A}
    .fil4 {fill:#7EC38F}
    .fil12 {fill:#7FC897}
    .fil9 {fill:#85C991}
    .fil7 {fill:#8AC583}
    .fil11 {fill:#8BCA8A}
    .fil6 {fill:#90CB84}
    .fil13 {fill:#93CC80}
    .fil5 {fill:#9ACD77}
    .fil3 {fill:#9BCE74}
   ]]>
  </style>
 </defs>
 <g id="Layer_x0020_1">
  <metadata id="CorelCorpID_0Corel-Layer"/>
  <path class="fil0" d="M508 31c119,-43 176,143 58,178 -116,34 -177,-135 -58,-178zm-219 190c20,7 3,-3 21,11 31,-43 49,-54 105,-83 17,20 28,78 106,89 68,10 98,-30 128,-66 32,17 66,57 83,92l22 -12c-12,-38 -64,-92 -97,-104 1,-62 -14,-104 -55,-131 -44,-28 -104,-18 -139,7 -61,43 -13,78 -76,110 -37,19 -84,53 -98,87z"/>
  <path class="fil1" d="M190 656l2 -21 -14 0c-26,4 -17,-5 -43,-55 -11,-22 -22,-42 -33,-63 -24,-44 -51,-87 -67,-135l130 -67c0,-28 4,-11 -7,-19 -32,7 -134,60 -158,81l155 295 35 -16z"/>
  <path class="fil2" d="M876 296c68,10 53,-10 77,53 12,30 32,65 42,92 19,55 -59,95 -91,167 -15,11 4,7 -24,9l3 18 28 0c26,-29 46,-60 71,-92 73,-96 61,-49 -6,-209 -32,-75 -20,-51 -100,-65l0 27z"/>
  <path class="fil0" d="M354 578l-19 2 -4 9c83,76 260,103 354,8 4,-21 9,-8 -4,-26 -23,10 -36,26 -69,40 -29,13 -59,20 -94,21 -68,2 -124,-27 -164,-54z"/>
  <path class="fil3" d="M681 571c13,18 8,5 4,26 2,1 5,3 6,3 2,1 5,3 7,4 1,0 8,4 11,5l18 1 -1 -19c-24,-24 -63,-126 -75,-163 18,-34 56,-65 63,-100 6,-31 2,-17 -2,-24 -17,11 -76,95 -91,116l60 151z"/>
  <path class="fil0" d="M239 413l20 46 -46 22 -21 -48 47 -20zm-81 6c7,34 26,74 48,96l90 -44 -45 -94 -93 42z"/>
  <path class="fil3" d="M332 333c13,54 70,119 86,179l-60 29 -2 28 97 -49 -114 -224 -7 37z"/>
  <path class="fil2" d="M858 383c25,2 35,48 45,65 -11,27 -30,55 -51,69l0 26 25 0c13,-35 39,-53 55,-86l-39 -93 -26 -5c-27,3 -7,-1 -15,9l6 15z"/>
  <path class="fil4" d="M709 609c12,16 144,24 174,26l-3 -18c28,-2 9,2 24,-9l-178 -17 1 19 -18 -1z"/>
  <path class="fil5" d="M779 534l1 -27 -29 -71 26 -40c1,-12 2,-7 0,-18 0,-1 -2,-2 -2,-5 0,-2 -2,-2 -3,-4 -16,15 -39,46 -50,66 8,22 14,34 23,55 10,23 9,42 34,44z"/>
  <path class="fil6" d="M230 256c2,1 4,1 4,4 0,3 2,4 2,6 3,11 2,1 2,14l53 -26 41 79 7 -37 -29 -64c-18,-14 -1,-4 -21,-11l-14 8c-4,3 -9,6 -14,9 -11,6 -21,11 -31,18z"/>
  <path class="fil7" d="M732 264c-8,22 -11,19 -20,40 4,7 8,-7 2,24 26,-13 19,-18 41,-42l37 0c1,-31 2,-16 8,-24l-46 -10 -22 12z"/>
  <polygon class="fil8" points="178,635 192,635 190,656 294,600 293,574 "/>
  <path class="fil9" d="M772 369c1,2 3,2 3,4 0,3 2,4 2,5 2,11 1,6 0,18l22 -20 59 7 -6 -15c8,-10 -12,-6 15,-9l-84 -10 -11 20z"/>
  <path class="fil10" d="M792 286l84 10 0 -27 -76 -7c-6,8 -7,-7 -8,24z"/>
  <path class="fil11" d="M293 574l1 26 37 -11 4 -9 19 -2 2 -9 2 -28c-24,11 -40,17 -65,33z"/>
  <path class="fil1" d="M521 158l3 -19c-10,-21 -11,-15 -1,-39 8,-31 4,-12 -5,-21 -41,16 -26,49 -18,77l21 2z"/>
  <polygon class="fil9" points="779,534 852,543 852,517 780,507 "/>
  <path class="fil12" d="M158 296c11,8 7,-9 7,19l73 -35c0,-13 1,-3 -2,-14 0,-2 -2,-3 -2,-6 0,-3 -2,-3 -4,-4l-72 40z"/>
  <polygon class="fil13" points="554,104 559,134 554,162 583,140 584,100 555,76 "/>
  <path class="fil10" d="M524 139l-3 19c8,16 21,9 33,4l5 -28 -35 5z"/>
  <path class="fil10" d="M523 100l31 4 1 -28c-14,-4 -19,-6 -37,3 9,9 13,-10 5,21z"/>
 </g>
</svg>
