<?xml version="1.0" encoding="UTF-8" standalone="no"?>
<!-- Creator: CorelDRAW X8 -->

<svg
   xml:space="preserve"
   width="44.74638mm"
   height="27.297007mm"
   version="1.1"
   style="clip-rule:evenodd;fill-rule:evenodd;image-rendering:optimizeQuality;shape-rendering:geometricPrecision;text-rendering:geometricPrecision"
   viewBox="0 0 1601.4134 976.97515"
   id="svg30"
   sodipodi:docname="multimodal.svg"
   inkscape:version="1.1.2 (b8e25be833, 2022-02-05)"
   xmlns:inkscape="http://www.inkscape.org/namespaces/inkscape"
   xmlns:sodipodi="http://sodipodi.sourceforge.net/DTD/sodipodi-0.dtd"
   xmlns="http://www.w3.org/2000/svg"
   xmlns:svg="http://www.w3.org/2000/svg"><sodipodi:namedview
   id="namedview32"
   pagecolor="#ffffff"
   bordercolor="#666666"
   borderopacity="1.0"
   inkscape:pageshadow="2"
   inkscape:pageopacity="0.0"
   inkscape:pagecheckerboard="0"
   inkscape:document-units="mm"
   showgrid="false"
   inkscape:zoom="8.2412475"
   inkscape:cx="154.22422"
   inkscape:cy="51.630533"
   inkscape:window-width="1920"
   inkscape:window-height="991"
   inkscape:window-x="-9"
   inkscape:window-y="-9"
   inkscape:window-maximized="1"
   inkscape:current-layer="Layer_x0020_1"
   fit-margin-top="0"
   fit-margin-left="0"
   fit-margin-right="0"
   fit-margin-bottom="0" />
 <defs
   id="defs4">
  <style
   type="text/css"
   id="style2">
   <![CDATA[
    .fil0 {fill:black}
    .fil1 {fill:#65C0AA}
    .fil8 {fill:#79C79C}
    .fil3 {fill:#84C991}
    .fil5 {fill:#8ACA8B}
    .fil4 {fill:#92C373}
    .fil2 {fill:#98C870}
    .fil6 {fill:#98CD7A}
    .fil7 {fill:#A5A5A5}
   ]]>
  </style>
 </defs>
 <g
   id="Layer_x0020_1"
   inkscape:label="Layer 1"
   inkscape:groupmode="layer"
   transform="translate(-0.05098849,-0.07968839)">
  <metadata
   id="CorelCorpID_0Corel-Layer" />
  <path
   class="fil0"
   d="m 324.04638,929 c -56.50039,4 -81.42704,-1 -86.41237,-56 h 121.30968 c -8.30889,34 -13.29422,34 -34.89731,56 z m 510.99622,-1 c -49.85329,6 -71.45638,-7 -89.73592,-54 h 126.295 c -11.63243,28 -15.78687,32 -36.55908,54 z M 745.30668,823 c 18.27954,-46 39.88263,-60 91.3977,-54 20.7722,26 21.60309,22 34.8973,56 z m -507.67267,2 c 4.98533,-56 29.91198,-59 87.24326,-58 22.43398,27 24.09576,19 34.8973,58 z M 984.60247,635 936.41096,502 h 129.61854 c 14.1251,51 39.8826,83 55.6695,133 z M 196.92049,822 c -13.29421,10 23.26487,15 -65.64016,15 -34.897303,-1 -36.55908,2 -68.963718,-12 L 59.823948,451 C 58.993059,394 53.176842,383 69.794605,349 H 993.74224 l 44.86796,109 -149.55987,9 c 1.66178,53 54.00773,168 72.28727,208 136.2657,19 226.8325,-63 192.7661,150 H 918.96231 C 892.37388,772 877.4179,718 803.46885,721 739.49046,724 729.5198,774 697.94605,825 H 406.30431 C 378.05411,766 366.42168,724 299.11974,722 240.95757,720 207.72204,766 196.92049,822 Z M 27.419309,316 31.57375,862 c 46.529737,20 102.19924,11 152.05253,11 37.38997,44 31.57375,105 115.49346,103 67.30194,-1 78.93437,-45 107.18457,-103 l 291.64174,1 c 34.89731,52 42.3753,105 113.83168,103 68.13283,-3 82.25793,-53 107.18458,-104 68.13282,0 209.38379,15 266.71509,-11 31.5738,-104 -1.6618,-178 -24.9266,-251 l -33.2356,-59 C 1106.743,497 1035.2866,342 1007.8673,303 l -239.29575,1 -88.90503,1 -429.56918,-4 -52.34596,4 H 64.809277 c -24.095757,1 -20.772204,2 -37.389968,11 z"
   id="path7"
   style="stroke-width:0.911531" />
  <path
   class="fil1"
   d="m 27.419309,316 c 16.617764,-9 13.294211,-10 37.389968,-11 v -42 c 24.926644,0 54.007733,-2 78.103483,-1 56.5004,2 41.54441,2 54.83862,43 l 52.34596,-4 c -6.64711,-13 -8.30889,-22 -19.11043,-38 l 382.20855,-1 -5.81621,-9 -62.31662,-31 C 282.50197,182 235.97224,291 139.58921,151 127.12589,132 119.6479,121 105.5228,105 73.949046,68 82.257928,91 63.1475,46 249.26645,46 159.53053,31 298.28885,75 l 9.13977,-39 C 242.61934,-2 247.60467,1 162.85408,1 109.67724,2 37.389967,-7 0,16 c 3.3235526,42 42.375296,71 63.978388,100 18.27954,25 58.993062,89 72.287272,101 l -107.184574,6 z"
   id="path9"
   style="stroke-width:0.911531" />
  <path
   class="fil2"
   d="m 1272.0898,262 c 85.5815,2 187.7807,18 224.3398,131 l -125.4641,-2 53.1768,9 v 39 h 96.383 l 42.3753,118 c -13.2942,23 -2.4926,14 -36.559,21 -3.3236,1 -49.8533,0 -52.346,0 l 62.3166,19 c 45.6989,5 25.7575,7 63.1475,-11 16.6178,-36 -73.1181,-235 -97.2139,-270 -58.1622,-83 -132.1112,-98 -252.59,-97 v 16 z"
   id="path11"
   style="stroke-width:0.911531" />
  <path
   class="fil3"
   d="m 723.70359,267 491.88581,-5 2.4926,-32 31.5738,5 v -16 l -604.0557,1 c 25.75753,37 39.05174,37 78.10349,47 z"
   id="path13"
   style="stroke-width:0.911531" />
  <path
   class="fil4"
   d="m 1160.7508,611 c 9.1397,-6 1.6617,-5 20.7722,-9 82.2579,-16 373.8996,24 417.9367,-16 -37.39,18 -17.4486,16 -63.1475,11 l -62.3166,-19 c 2.4927,0 49.0224,1 52.346,0 34.0664,-7 23.2648,2 36.559,-21 l -435.3854,-5 z"
   id="path15"
   style="stroke-width:0.911531" />
  <path
   class="fil5"
   d="m 409.62786,138 c 19.94132,18 111.33902,71 135.43477,84 l 62.31662,31 c -6.64711,-44 -6.64711,-22 3.32355,-41 L 413.7823,99 c 6.64711,48 3.32356,-28 1.66178,23 0,2 -2.49266,11 -2.49266,9 0,-1 -2.49267,5 -3.32356,7 z"
   id="path17"
   style="stroke-width:0.911531" />
  <path
   class="fil6"
   d="m 607.37925,253 5.81621,9 c 16.61777,5 19.94132,4 33.23553,11 45.69885,26 -8.30888,-9 14.1251,10 14.95598,12 9.13977,9 19.11043,22 l 88.90503,-1 C 748.63023,279 746.96846,284 723.70359,267 684.65184,257 671.35763,257 645.6001,220 l -34.8973,-8 c -9.97066,19 -9.97066,-3 -3.32355,41 z"
   id="path19"
   style="stroke-width:0.911531" />
  <path
   class="fil7"
   d="M 196.92049,822 H 71.456382 L 69.794605,349 c -16.617763,34 -10.801546,45 -9.970657,102 l 2.492664,374 c 32.404638,14 34.066415,11 68.963718,12 88.90503,0 52.34595,-5 65.64016,-15 z"
   id="path21"
   style="stroke-width:0.911531" />
  <polygon
   class="fil1"
   points="1531,262 1504,235 1466,230 1463,262 1578,378 1585,329 "
   id="polygon23"
   transform="scale(0.83088816,1)" />
  <path
   class="fil8"
   d="m 1311.1415,378 c 19.9413,21 24.9267,26 44.0371,59 l 68.9637,2 v -39 l -53.1768,-9 -54.0078,-62 z"
   id="path25"
   style="stroke-width:0.911531" />
  <path
   class="fil8"
   d="m 298.28885,75 111.33901,63 c 0.83089,-2 3.32356,-8 3.32356,-7 0,2 2.49266,-7 2.49266,-9 1.66178,-51 4.98533,25 -1.66178,-23 L 307.42862,36 Z"
   id="path27"
   style="stroke-width:0.911531" />
 </g>
</svg>
