<?xml version="1.0" encoding="UTF-8"?>
<!DOCTYPE svg PUBLIC "-//W3C//DTD SVG 1.1//EN" "http://www.w3.org/Graphics/SVG/1.1/DTD/svg11.dtd">
<!-- Creator: CorelDRAW X8 -->
<svg xmlns="http://www.w3.org/2000/svg" xml:space="preserve" width="26.1022mm" height="54.6737mm" version="1.1" style="shape-rendering:geometricPrecision; text-rendering:geometricPrecision; image-rendering:optimizeQuality; fill-rule:evenodd; clip-rule:evenodd"
viewBox="0 0 439 919"
 xmlns:xlink="http://www.w3.org/1999/xlink">
 <defs>
  <style type="text/css">
   <![CDATA[
    .fil0 {fill:black}
    .fil1 {fill:#63C4B1}
    .fil7 {fill:#67BFA6}
    .fil11 {fill:#67C5AE}
    .fil8 {fill:#6AC5AB}
    .fil6 {fill:#6EC6A8}
    .fil9 {fill:#75C199}
    .fil3 {fill:#7EC390}
    .fil4 {fill:#82C994}
    .fil12 {fill:#85C389}
    .fil10 {fill:#92C778}
    .fil5 {fill:#94CC7F}
    .fil2 {fill:#9ECE70}
   ]]>
  </style>
 </defs>
 <g id="Layer_x0020_1">
  <metadata id="CorelCorpID_0Corel-Layer"/>
  <path class="fil0" d="M24 24l391 0 0 871 -391 0 0 -871zm-24 877c0,13 4,18 18,18l421 0 0 -919 -439 0 0 901z"/>
  <path class="fil0" d="M59 59l320 0 0 800 -320 0 0 -800zm-23 806c0,14 4,18 17,18l350 0 0 -847 -367 0 0 829z"/>
  <path class="fil0" d="M202 359c58,-12 106,27 117,75 14,64 -28,114 -76,124 -135,28 -178,-170 -41,-199zm-15 -19c-146,41 -103,277 65,238 56,-14 104,-73 88,-147 -14,-60 -79,-112 -153,-91z"/>
  <path class="fil0" d="M120 225c-14,-65 28,-112 78,-122 58,-13 112,29 122,76 28,139 -172,169 -200,46zm78 -143c-175,41 -101,279 52,240 156,-41 95,-274 -52,-240z"/>
  <path class="fil1" d="M139 805l10 3 -3 -17c-11,-19 -27,-41 -28,-74 -2,-41 16,-54 30,-77 1,-31 1,-12 -5,-18 -25,15 -45,48 -46,89 -1,45 16,72 42,94z"/>
  <path class="fil2" d="M313 670c13,46 10,46 1,90 -1,6 -2,11 -1,16 3,13 0,5 6,12 28,-41 36,-100 0,-142 -9,6 -1,-3 -6,12 -1,1 0,10 0,12z"/>
  <path class="fil3" d="M194 616c36,-4 52,0 80,12 -8,-27 -4,-13 5,-19 -19,-14 -65,-25 -89,-10 8,8 9,-5 4,17z"/>
  <path class="fil4" d="M197 815l-1 20c32,5 54,3 76,-10l-1 -21c-28,12 -40,16 -74,11z"/>
  <path class="fil5" d="M274 628c26,22 18,16 39,42 0,-2 -1,-11 0,-12 5,-15 -3,-6 6,-12 -9,-20 -17,-26 -40,-37 -9,6 -13,-8 -5,19z"/>
  <path class="fil6" d="M139 805c12,16 34,26 57,30l1 -20 -51 -24 3 17 -10 -3z"/>
  <path class="fil5" d="M271 804l1 21c30,-12 27,-19 47,-37 -6,-7 -3,1 -6,-12 -1,-5 0,-10 1,-16 -21,26 -12,26 -43,44z"/>
  <path class="fil6" d="M143 622c6,6 6,-13 5,18l46 -24c5,-22 4,-9 -4,-17 -26,2 -33,9 -47,23z"/>
  <path class="fil7" d="M203 693l4 -24c-25,8 -38,9 -51,24 6,7 4,10 18,8 4,0 22,-6 29,-8z"/>
  <polygon class="fil3" points="207,669 203,693 252,676 248,657 "/>
  <path class="fil8" d="M202 769l6 -16 -11 0c-26,3 -27,2 -41,17 6,7 5,11 19,9 4,-1 24,-9 27,-10z"/>
  <polygon class="fil3" points="197,753 208,753 202,769 249,756 248,734 "/>
  <path class="fil9" d="M186 720l11 3 -7 11 36 -9 0 -22c-7,2 -15,3 -21,6 -23,8 -9,2 -19,11z"/>
  <path class="fil10" d="M248 734l1 22c28,-8 28,-3 34,-21 -16,-11 -15,-7 -35,-1z"/>
  <path class="fil10" d="M248 657l4 19c28,-5 25,0 31,-18 -16,-12 -15,-7 -35,-1z"/>
  <path class="fil11" d="M190 734l7 -11 -11 -3c-27,-1 -23,-3 -30,15 17,10 19,6 34,-1z"/>
  <path class="fil10" d="M253 695l-2 23c22,-8 19,-3 32,-19 -3,-4 6,-6 -11,-9 -6,-1 -14,3 -19,5z"/>
  <polygon class="fil12" points="226,703 226,725 251,718 253,695 "/>
 </g>
</svg>
